<svg data-v-fde0c5aa="" xmlns="http://www.w3.org/2000/svg" viewBox="0 0 300 300" class="iconAbove"><!----><defs data-v-fde0c5aa=""><!----></defs><rect data-v-fde0c5aa="" fill="transparent" x="0" y="0" width="300px" height="300px" class="logo-background-square"></rect><defs data-v-fde0c5aa=""><!----></defs><g data-v-fde0c5aa="" id="a1741ce0-4909-4d40-8fab-1b0231ce9789" fill="#000000" transform="matrix(3.4588267438246763,0,0,3.4588267438246763,15.39976028227644,168.9095370047465)"><path d="M4.65 13.92L4.65 13.92L4.65 13.92Q3.49 13.92 2.73 13.16L2.73 13.16L2.73 13.75L1.33 13.75L1.33 4.30L2.73 3.64L2.73 7.20L2.73 7.20Q3.05 6.86 3.58 6.64L3.58 6.64L3.58 6.64Q4.10 6.43 4.63 6.43L4.63 6.43L4.63 6.43Q5.99 6.43 6.83 7.43L6.83 7.43L6.83 7.43Q7.67 8.43 7.67 10.16L7.67 10.16L7.67 10.16Q7.67 11.96 6.87 12.94L6.87 12.94L6.87 12.94Q6.06 13.92 4.65 13.92ZM4.42 12.60L4.42 12.60L4.42 12.60Q5.33 12.60 5.79 11.96L5.79 11.96L5.79 11.96Q6.24 11.31 6.24 10.16L6.24 10.16L6.24 10.16Q6.24 7.74 4.42 7.74L4.42 7.74L4.42 7.74Q3.85 7.74 3.40 7.99L3.40 7.99L3.40 7.99Q2.95 8.25 2.73 8.58L2.73 8.58L2.73 11.75L2.73 11.75Q3.32 12.60 4.42 12.60ZM13.64 3.64L13.64 12.50L15.68 12.50L15.68 13.75L10.18 13.75L10.18 12.50L12.24 12.50L12.24 4.87L10.54 4.87L9.90 3.64L13.64 3.64ZM24.03 12.91L24.03 12.91L24.03 12.91Q23.11 13.92 21.56 13.92L21.56 13.92L21.56 13.92Q20.01 13.92 19.09 12.92L19.09 12.92L19.09 12.92Q18.17 11.91 18.17 10.18L18.17 10.18L18.17 10.18Q18.17 8.44 19.09 7.43L19.09 7.43L19.09 7.43Q20.01 6.43 21.56 6.43L21.56 6.43L21.56 6.43Q23.11 6.43 24.03 7.43L24.03 7.43L24.03 7.43Q24.95 8.44 24.95 10.16L24.95 10.16L24.95 10.16Q24.95 11.90 24.03 12.91ZM20.11 11.95L20.11 11.95L20.11 11.95Q20.62 12.60 21.56 12.60L21.56 12.60L21.56 12.60Q22.50 12.60 23.02 11.94L23.02 11.94L23.02 11.94Q23.53 11.28 23.53 10.16L23.53 10.16L23.53 10.16Q23.53 9.04 23.02 8.39L23.02 8.39L23.02 8.39Q22.51 7.74 21.56 7.74L21.56 7.74L21.56 7.74Q20.61 7.74 20.10 8.38L20.10 8.38L20.10 8.38Q19.60 9.02 19.60 10.18L19.60 10.18L19.60 10.18Q19.60 11.30 20.11 11.95ZM29.72 16.65L29.72 16.65L28.99 15.50L28.99 15.50Q30.52 15.40 31.10 15.00L31.10 15.00L31.10 15.00Q31.68 14.60 31.68 13.80L31.68 13.80L31.68 13.15L31.68 13.15Q31.05 13.92 29.89 13.92L29.89 13.92L29.89 13.92Q28.59 13.92 27.74 12.94L27.74 12.94L27.74 12.94Q26.89 11.96 26.89 10.16L26.89 10.16L26.89 10.16Q26.89 8.44 27.73 7.43L27.73 7.43L27.73 7.43Q28.56 6.43 29.92 6.43L29.92 6.43L29.92 6.43Q31.02 6.43 31.68 7.11L31.68 7.11L31.68 6.59L33.08 6.59L33.08 13.20L33.08 13.20Q33.08 14.97 32.26 15.75L32.26 15.75L32.26 15.75Q31.44 16.53 29.72 16.65ZM30.14 12.60L30.14 12.60L30.14 12.60Q31.15 12.60 31.68 11.72L31.68 11.72L31.68 8.58L31.68 8.58Q31.15 7.74 30.14 7.74L30.14 7.74L30.14 7.74Q29.25 7.74 28.78 8.37L28.78 8.37L28.78 8.37Q28.32 8.99 28.32 10.16L28.32 10.16L28.32 10.16Q28.32 11.28 28.81 11.94L28.81 11.94L28.81 11.94Q29.30 12.60 30.14 12.60ZM38.81 13.92L38.81 13.92L38.81 13.92Q37.95 13.92 37.22 13.57L37.22 13.57L37.22 13.57Q36.48 13.23 36.02 12.64L36.02 12.64L36.96 11.82L36.96 11.82Q37.80 12.71 38.91 12.71L38.91 12.71L38.91 12.71Q39.47 12.71 39.82 12.50L39.82 12.50L39.82 12.50Q40.18 12.28 40.18 11.87L40.18 11.87L40.18 11.87Q40.18 11.30 38.60 10.65L38.60 10.65L38.60 10.65Q38.57 10.64 38.56 10.63L38.56 10.63L38.56 10.63Q38.54 10.63 38.51 10.61L38.51 10.61L38.51 10.61Q38.49 10.60 38.47 10.59L38.47 10.59L38.47 10.59Q38.44 10.58 38.42 10.57L38.42 10.57L38.42 10.57Q37.81 10.32 37.49 10.16L37.49 10.16L37.49 10.16Q37.17 10.00 36.81 9.73L36.81 9.73L36.81 9.73Q36.44 9.46 36.28 9.13L36.28 9.13L36.28 9.13Q36.12 8.79 36.12 8.34L36.12 8.34L36.12 8.34Q36.12 7.46 36.87 6.94L36.87 6.94L36.87 6.94Q37.62 6.43 38.77 6.43L38.77 6.43L38.77 6.43Q40.36 6.43 41.34 7.55L41.34 7.55L40.42 8.32L40.42 8.32Q39.65 7.63 38.71 7.63L38.71 7.63L38.71 7.63Q38.14 7.63 37.79 7.83L37.79 7.83L37.79 7.83Q37.44 8.02 37.44 8.36L37.44 8.36L37.44 8.36Q37.44 8.85 38.98 9.45L38.98 9.45L38.98 9.45Q39.03 9.48 39.06 9.49L39.06 9.49L39.06 9.49Q39.56 9.69 39.79 9.79L39.79 9.79L39.79 9.79Q40.01 9.88 40.41 10.11L40.41 10.11L40.41 10.11Q40.81 10.33 41.00 10.54L41.00 10.54L41.00 10.54Q41.19 10.75 41.34 11.10L41.34 11.10L41.34 11.10Q41.50 11.44 41.50 11.84L41.50 11.84L41.50 11.84Q41.50 12.81 40.77 13.36L40.77 13.36L40.77 13.36Q40.04 13.92 38.81 13.92ZM45.85 15.92L44.45 16.58L44.45 6.59L45.85 6.59L45.85 7.17L45.85 7.17Q46.59 6.43 47.70 6.43L47.70 6.43L47.70 6.43Q49.14 6.43 49.98 7.42L49.98 7.42L49.98 7.42Q50.82 8.41 50.82 10.16L50.82 10.16L50.82 10.16Q50.82 11.91 49.95 12.92L49.95 12.92L49.95 12.92Q49.08 13.92 47.71 13.92L47.71 13.92L47.71 13.92Q46.52 13.92 45.85 13.12L45.85 13.12L45.85 15.92ZM47.52 12.60L47.52 12.60L47.52 12.60Q48.41 12.60 48.90 11.97L48.90 11.97L48.90 11.97Q49.39 11.34 49.39 10.16L49.39 10.16L49.39 10.16Q49.39 9.04 48.90 8.39L48.90 8.39L48.90 8.39Q48.40 7.74 47.49 7.74L47.49 7.74L47.49 7.74Q46.40 7.74 45.85 8.58L45.85 8.58L45.85 11.75L45.85 11.75Q46.49 12.60 47.52 12.60ZM55.55 13.92L55.55 13.92L55.55 13.92Q54.39 13.92 53.66 13.29L53.66 13.29L53.66 13.29Q52.93 12.67 52.93 11.52L52.93 11.52L52.93 11.52Q52.93 10.36 53.75 9.76L53.75 9.76L53.75 9.76Q54.57 9.16 55.73 9.16L55.73 9.16L55.73 9.16Q56.80 9.16 57.60 9.58L57.60 9.58L57.60 9.09L57.60 9.09Q57.60 7.64 56.14 7.64L56.14 7.64L56.14 7.64Q55.03 7.64 53.86 8.39L53.86 8.39L53.44 7.24L53.44 7.24Q54.71 6.43 56.27 6.43L56.27 6.43L56.27 6.43Q58.95 6.43 58.95 9.04L58.95 9.04L58.95 13.75L57.60 13.75L57.60 13.13L57.60 13.13Q56.78 13.92 55.55 13.92ZM55.78 12.68L55.78 12.68L55.78 12.68Q56.81 12.68 57.60 11.84L57.60 11.84L57.60 10.77L57.60 10.77Q56.85 10.35 55.94 10.35L55.94 10.35L55.94 10.35Q55.23 10.35 54.75 10.65L54.75 10.65L54.75 10.65Q54.28 10.95 54.28 11.52L54.28 11.52L54.28 11.52Q54.28 12.05 54.68 12.37L54.68 12.37L54.68 12.37Q55.08 12.68 55.78 12.68ZM64.83 13.92L64.83 13.92L64.83 13.92Q63.38 13.92 62.52 12.93L62.52 12.93L62.52 12.93Q61.67 11.94 61.67 10.18L61.67 10.18L61.67 10.18Q61.67 8.43 62.54 7.43L62.54 7.43L62.54 7.43Q63.41 6.43 64.89 6.43L64.89 6.43L64.89 6.43Q67.00 6.43 67.65 8.22L67.65 8.22L66.33 8.68L66.33 8.68Q65.95 7.74 64.89 7.74L64.89 7.74L64.89 7.74Q64.02 7.74 63.57 8.39L63.57 8.39L63.57 8.39Q63.11 9.04 63.11 10.18L63.11 10.18L63.11 10.18Q63.11 11.33 63.56 11.96L63.56 11.96L63.56 11.96Q64.01 12.60 64.85 12.60L64.85 12.60L64.85 12.60Q66.04 12.60 66.39 11.54L66.39 11.54L67.70 11.96L67.70 11.96Q67.09 13.92 64.83 13.92ZM76.50 9.84L76.50 9.84L76.50 9.84Q76.50 10.37 76.45 10.72L76.45 10.72L71.53 10.72L71.53 10.72Q71.68 11.62 72.18 12.14L72.18 12.14L72.18 12.14Q72.67 12.66 73.47 12.66L73.47 12.66L73.47 12.66Q74.41 12.66 75.10 12.01L75.10 12.01L75.92 12.91L75.92 12.91Q74.91 13.92 73.46 13.92L73.46 13.92L73.46 13.92Q71.90 13.92 71.01 12.87L71.01 12.87L71.01 12.87Q70.11 11.83 70.11 10.16L70.11 10.16L70.11 10.16Q70.11 8.41 71.02 7.42L71.02 7.42L71.02 7.42Q71.92 6.43 73.46 6.43L73.46 6.43L73.46 6.43Q74.79 6.43 75.64 7.29L75.64 7.29L75.64 7.29Q76.50 8.16 76.50 9.84ZM71.50 9.51L71.50 9.51L75.11 9.51L75.11 9.51Q75.07 8.55 74.59 8.11L74.59 8.11L74.59 8.11Q74.12 7.66 73.46 7.66L73.46 7.66L73.46 7.66Q72.59 7.66 72.10 8.14L72.10 8.14L72.10 8.14Q71.61 8.62 71.50 9.51Z"></path></g><defs data-v-fde0c5aa=""><linearGradient data-v-fde0c5aa="" gradientTransform="rotate(25)" id="80c7ea58-6b08-47c1-a47e-cedf12c38a32" x1="0%" y1="0%" x2="100%" y2="0%"><stop data-v-fde0c5aa="" offset="0%" stop-color="#0076DD" stop-opacity="1"></stop><stop data-v-fde0c5aa="" offset="100%" stop-color="#00CDE9" stop-opacity="1"></stop></linearGradient></defs><g data-v-fde0c5aa="" id="d1f409d5-52f4-4377-97d6-08c55fce20e3" stroke="none" fill="url(#80c7ea58-6b08-47c1-a47e-cedf12c38a32)" transform="matrix(2.812458339389214,0,0,2.812458339389214,105.00066522868794,73.50099985465886)"><path d="M27.377 11.377L16 0 4.623 11.377 16 22.753l11.377-11.376zM16 6.026l5.35 5.35L16 16.727l-5.35-5.35L16 6.026zM27.426 14.969l-5.664 5.664V32h5.664zM10.238 20.633l-5.664-5.664V32h5.664z"></path></g><!----></svg>